<svg xmlns="http://www.w3.org/2000/svg" xmlns:xlink="http://www.w3.org/1999/xlink" width="192" height="192" preserveAspectRatio="xMidYMid meet" version="1.0" viewBox="0 0 144 144" zoomAndPan="magnify"><defs><clipPath id="cca89c5e43"><path d="M 17 3.199219 L 127 3.199219 L 127 129.648438 L 17 129.648438 Z M 17 3.199219" clip-rule="nonzero"/></clipPath><clipPath id="683c555a9c"><path d="M 94 67 L 103 67 L 103 82 L 94 82 Z M 94 67" clip-rule="nonzero"/></clipPath><clipPath id="2b2c50d8b0"><path d="M 94.132812 68.511719 L 96.441406 67.5 L 102.265625 80.804688 L 99.960938 81.8125 Z M 94.132812 68.511719" clip-rule="nonzero"/></clipPath><clipPath id="6a8ebffea3"><path d="M 104 67 L 113 67 L 113 82 L 104 82 Z M 104 67" clip-rule="nonzero"/></clipPath><clipPath id="c8fd0f8bf8"><path d="M 109.996094 67.523438 L 112.289062 68.558594 L 106.328125 81.800781 L 104.03125 80.765625 Z M 109.996094 67.523438" clip-rule="nonzero"/></clipPath><clipPath id="c2d7e7a4f7"><path d="M 95 71 L 104 71 L 104 80 L 95 80 Z M 95 71" clip-rule="nonzero"/></clipPath><clipPath id="24ac3cd425"><path d="M 103.109375 71.535156 L 103.738281 72.136719 L 96.257812 79.988281 L 95.628906 79.386719 Z M 103.109375 71.535156" clip-rule="nonzero"/></clipPath><clipPath id="576d91689b"><path d="M 96.589844 77.238281 L 109.371094 77.238281 L 109.371094 77.722656 L 96.589844 77.722656 Z M 96.589844 77.238281" clip-rule="nonzero"/></clipPath><clipPath id="a54662d21e"><path d="M 102 71 L 111 71 L 111 81 L 102 81 Z M 102 71" clip-rule="nonzero"/></clipPath><clipPath id="fbb2f246ba"><path d="M 102.769531 71.988281 L 103.464844 71.460938 L 110.011719 80.105469 L 109.316406 80.628906 Z M 102.769531 71.988281" clip-rule="nonzero"/></clipPath></defs><path fill="#1876bc" fill-opacity="1" fill-rule="nonzero" d="M 30.777344 41.289062 L 105.339844 41.289062 C 109.671875 41.289062 113.191406 44.808594 113.191406 49.144531 L 113.191406 119.828125 C 113.191406 124.164062 109.671875 127.683594 105.339844 127.683594 L 30.777344 127.683594 C 24.28125 127.683594 19.003906 122.40625 19.003906 115.902344 L 19.003906 53.070312 C 19.003906 46.570312 24.28125 41.289062 30.777344 41.289062 Z M 30.777344 41.289062"/><path fill="#1e94eb" fill-opacity="1" fill-rule="nonzero" d="M 113.191406 127.683594 L 30.777344 127.683594 C 24.277344 127.683594 19.003906 122.410156 19.003906 115.902344 L 19.003906 53.070312 C 19.003906 59.578125 24.277344 64.851562 30.777344 64.851562 L 113.191406 64.851562 C 117.523438 64.851562 121.039062 68.367188 121.039062 72.707031 L 121.039062 119.828125 C 121.039062 124.167969 117.523438 127.683594 113.191406 127.683594 Z M 113.191406 127.683594"/><path fill="#5acdf5" fill-opacity="1" fill-rule="nonzero" d="M 93.570312 106.085938 C 88.160156 106.085938 83.757812 101.679688 83.757812 96.269531 C 83.757812 90.855469 88.160156 86.449219 93.570312 86.449219 L 119.078125 86.449219 C 122.324219 86.449219 124.964844 83.808594 124.964844 80.558594 L 124.964844 100.195312 C 124.964844 102.289062 123.835938 104.242188 122.023438 105.285156 C 121.101562 105.816406 120.113281 106.085938 119.078125 106.085938 Z M 93.570312 106.085938"/><path fill="#fff" fill-opacity="1" fill-rule="nonzero" d="M 103.378906 96.269531 C 103.378906 96.914062 103.316406 97.550781 103.191406 98.183594 C 103.066406 98.816406 102.878906 99.429688 102.632812 100.023438 C 102.386719 100.621094 102.082031 101.1875 101.726562 101.722656 C 101.367188 102.257812 100.960938 102.753906 100.503906 103.210938 C 100.050781 103.664062 99.554688 104.074219 99.019531 104.429688 C 98.484375 104.789062 97.917969 105.089844 97.324219 105.339844 C 96.726562 105.585938 96.113281 105.769531 95.480469 105.898438 C 94.851562 106.023438 94.210938 106.085938 93.570312 106.085938 C 92.925781 106.085938 92.285156 106.023438 91.65625 105.898438 C 91.023438 105.769531 90.410156 105.585938 89.8125 105.339844 C 89.21875 105.089844 88.652344 104.789062 88.117188 104.429688 C 87.582031 104.074219 87.085938 103.664062 86.632812 103.210938 C 86.175781 102.753906 85.769531 102.257812 85.410156 101.722656 C 85.054688 101.1875 84.75 100.621094 84.503906 100.023438 C 84.257812 99.429688 84.070312 98.816406 83.945312 98.183594 C 83.820312 97.550781 83.757812 96.914062 83.757812 96.269531 C 83.757812 95.625 83.820312 94.984375 83.945312 94.351562 C 84.070312 93.71875 84.257812 93.105469 84.503906 92.511719 C 84.75 91.914062 85.054688 91.351562 85.410156 90.8125 C 85.769531 90.277344 86.175781 89.78125 86.632812 89.328125 C 87.085938 88.871094 87.582031 88.464844 88.117188 88.105469 C 88.652344 87.746094 89.21875 87.445312 89.8125 87.199219 C 90.410156 86.953125 91.023438 86.765625 91.65625 86.640625 C 92.285156 86.515625 92.925781 86.449219 93.570312 86.449219 C 94.210938 86.449219 94.851562 86.515625 95.480469 86.640625 C 96.113281 86.765625 96.726562 86.953125 97.324219 87.199219 C 97.917969 87.445312 98.484375 87.746094 99.019531 88.105469 C 99.554688 88.464844 100.050781 88.871094 100.503906 89.328125 C 100.960938 89.78125 101.367188 90.277344 101.726562 90.8125 C 102.082031 91.351562 102.386719 91.914062 102.632812 92.511719 C 102.878906 93.105469 103.066406 93.71875 103.191406 94.351562 C 103.316406 94.984375 103.378906 95.625 103.378906 96.269531 Z M 103.378906 96.269531"/><path fill="#ffc32d" fill-opacity="1" fill-rule="nonzero" d="M 77.046875 6.160156 C 70.042969 7.234375 64.253906 12.609375 62.648438 19.515625 C 61.761719 23.339844 62.164062 26.992188 63.449219 30.195312 L 60.210938 33.4375 L 60.210938 39.328125 L 54.324219 39.328125 L 54.324219 45.21875 L 50.398438 45.21875 L 46.476562 49.144531 L 46.476562 57 L 54.996094 57 C 57.078125 57 59.074219 56.171875 60.546875 54.699219 L 74.707031 40.527344 C 77.429688 41.355469 80.421875 41.554688 83.535156 40.902344 C 90.621094 39.421875 96.199219 33.542969 97.28125 26.382812 C 99.089844 14.457031 88.96875 4.335938 77.046875 6.160156 Z M 83.757812 23.621094 C 81.589844 23.621094 79.832031 21.863281 79.832031 19.691406 C 79.832031 17.523438 81.589844 15.765625 83.757812 15.765625 C 85.925781 15.765625 87.683594 17.523438 87.683594 19.691406 C 87.683594 21.863281 85.925781 23.621094 83.757812 23.621094 Z M 83.757812 23.621094"/><g clip-path="url(#cca89c5e43)"><path fill="#fff" fill-opacity="1" fill-rule="nonzero" d="M 123 75.03125 L 123 72.707031 C 123 67.964844 119.625 64 115.152344 63.085938 L 115.152344 49.144531 C 115.152344 43.730469 110.75 39.328125 105.339844 39.328125 L 99.453125 39.328125 C 98.371094 39.328125 97.492188 40.207031 97.492188 41.289062 C 97.492188 42.375 98.371094 43.253906 99.453125 43.253906 L 105.339844 43.253906 C 108.585938 43.253906 111.226562 45.898438 111.226562 49.144531 L 111.226562 62.890625 L 30.777344 62.890625 C 28.148438 62.890625 25.6875 61.867188 23.839844 60.003906 C 21.988281 58.167969 20.96875 55.703125 20.96875 53.070312 C 20.96875 47.660156 25.367188 43.253906 30.777344 43.253906 L 42.550781 43.253906 C 43.636719 43.253906 44.515625 42.375 44.515625 41.289062 C 44.515625 40.207031 43.636719 39.328125 42.550781 39.328125 L 30.777344 39.328125 C 23.203125 39.328125 17.042969 45.492188 17.042969 53.070312 L 17.042969 115.902344 C 17.042969 123.480469 23.203125 129.648438 30.777344 129.648438 L 113.191406 129.648438 C 118.601562 129.648438 123 125.242188 123 119.828125 L 123 106.957031 C 125.335938 105.59375 126.925781 103.089844 126.925781 100.195312 L 126.925781 80.558594 C 126.925781 78.003906 125.28125 75.84375 123 75.03125 Z M 119.078125 119.828125 C 119.078125 123.078125 116.4375 125.71875 113.191406 125.71875 L 30.777344 125.71875 C 25.367188 125.71875 20.96875 121.316406 20.96875 115.902344 L 20.96875 111.976562 L 35.25 111.976562 C 35.929688 113.144531 37.179688 113.9375 38.628906 113.9375 C 40.792969 113.9375 42.550781 112.175781 42.550781 110.011719 C 42.550781 107.847656 40.792969 106.085938 38.628906 106.085938 C 37.179688 106.085938 35.929688 106.882812 35.25 108.050781 L 20.96875 108.050781 L 20.96875 96.269531 L 37.972656 96.269531 L 53.148438 107.65625 C 53.488281 107.910156 53.898438 108.050781 54.324219 108.050781 L 64.679688 108.050781 C 65.363281 109.21875 66.613281 110.011719 68.058594 110.011719 C 70.222656 110.011719 71.984375 108.25 71.984375 106.085938 C 71.984375 103.921875 70.222656 102.160156 68.058594 102.160156 C 66.613281 102.160156 65.363281 102.953125 64.679688 104.121094 L 54.980469 104.121094 L 44.511719 96.269531 L 54.871094 96.269531 C 55.550781 97.4375 56.804688 98.230469 58.25 98.230469 C 60.414062 98.230469 62.171875 96.46875 62.171875 94.304688 C 62.171875 92.140625 60.414062 90.378906 58.25 90.378906 C 56.804688 90.378906 55.550781 91.171875 54.871094 92.339844 L 20.96875 92.339844 L 20.96875 84.488281 L 40.589844 84.488281 C 40.976562 84.488281 41.355469 84.371094 41.679688 84.15625 L 47.070312 80.558594 L 66.644531 80.558594 C 67.324219 81.726562 68.574219 82.523438 70.023438 82.523438 C 72.1875 82.523438 73.945312 80.761719 73.945312 78.597656 C 73.945312 76.433594 72.1875 74.671875 70.023438 74.671875 C 68.574219 74.671875 67.324219 75.464844 66.644531 76.632812 L 46.476562 76.632812 C 46.089844 76.632812 45.710938 76.75 45.386719 76.964844 L 39.996094 80.558594 L 20.96875 80.558594 L 20.96875 62.683594 L 21.0625 62.78125 C 23.640625 65.382812 27.09375 66.816406 30.777344 66.816406 L 113.191406 66.816406 C 116.4375 66.816406 119.078125 69.457031 119.078125 72.707031 L 119.078125 84.488281 L 93.570312 84.488281 C 87.078125 84.488281 81.796875 89.773438 81.796875 96.269531 C 81.796875 102.765625 87.078125 108.050781 93.570312 108.050781 L 119.078125 108.050781 Z M 101.417969 96.269531 C 101.417969 100.601562 97.894531 104.121094 93.570312 104.121094 C 89.242188 104.121094 85.71875 100.601562 85.71875 96.269531 C 85.71875 91.9375 89.242188 88.414062 93.570312 88.414062 C 97.894531 88.414062 101.417969 91.9375 101.417969 96.269531 Z M 123 100.195312 C 123 102.359375 121.242188 104.121094 119.078125 104.121094 L 102.320312 104.121094 C 104.191406 102.035156 105.339844 99.285156 105.339844 96.269531 C 105.339844 93.25 104.191406 90.5 102.320312 88.414062 L 119.078125 88.414062 C 120.503906 88.414062 121.84375 88.03125 123 87.359375 Z M 83.757812 25.582031 C 87.003906 25.582031 89.644531 22.941406 89.644531 19.691406 C 89.644531 16.445312 87.003906 13.800781 83.757812 13.800781 C 80.511719 13.800781 77.871094 16.445312 77.871094 19.691406 C 77.871094 22.941406 80.511719 25.582031 83.757812 25.582031 Z M 83.757812 17.730469 C 84.839844 17.730469 85.71875 18.609375 85.71875 19.691406 C 85.71875 20.777344 84.839844 21.65625 83.757812 21.65625 C 82.675781 21.65625 81.796875 20.777344 81.796875 19.691406 C 81.796875 18.609375 82.675781 17.730469 83.757812 17.730469 Z M 44.515625 57 C 44.515625 58.085938 45.390625 58.960938 46.476562 58.960938 L 55 58.960938 C 57.617188 58.960938 60.082031 57.941406 61.933594 56.085938 L 75.292969 42.722656 C 78.128906 43.398438 81.03125 43.4375 83.9375 42.824219 C 91.871094 41.167969 98.011719 34.675781 99.222656 26.675781 C 100.179688 20.367188 98.164062 14.191406 93.699219 9.726562 C 89.230469 5.265625 83.050781 3.25 76.75 4.222656 L 76.746094 4.222656 C 68.957031 5.414062 62.523438 11.378906 60.738281 19.070312 C 59.914062 22.628906 60.066406 26.273438 61.179688 29.691406 L 58.824219 32.046875 C 58.457031 32.417969 58.25 32.914062 58.25 33.4375 L 58.25 37.363281 L 54.324219 37.363281 C 53.242188 37.363281 52.363281 38.242188 52.363281 39.328125 L 52.363281 43.253906 L 50.398438 43.253906 C 49.878906 43.253906 49.382812 43.460938 49.011719 43.828125 L 45.089844 47.757812 C 44.722656 48.125 44.515625 48.625 44.515625 49.144531 Z M 48.4375 49.957031 L 51.210938 47.179688 L 54.324219 47.179688 C 55.410156 47.179688 56.285156 46.304688 56.285156 45.21875 L 56.285156 41.289062 L 60.210938 41.289062 C 61.292969 41.289062 62.171875 40.414062 62.171875 39.328125 L 62.171875 34.25 L 64.839844 31.585938 C 65.394531 31.027344 65.5625 30.195312 65.273438 29.464844 C 64.0625 26.453125 63.816406 23.164062 64.5625 19.960938 C 65.988281 13.820312 71.121094 9.054688 77.34375 8.101562 C 82.402344 7.332031 87.351562 8.933594 90.925781 12.503906 C 94.5 16.078125 96.109375 21.027344 95.34375 26.089844 C 94.375 32.476562 89.46875 37.65625 83.132812 38.980469 C 80.480469 39.539062 77.835938 39.425781 75.277344 38.652344 C 74.582031 38.4375 73.832031 38.628906 73.320312 39.140625 L 59.160156 53.308594 C 58.0625 54.40625 56.546875 55.035156 55 55.035156 L 48.4375 55.035156 Z M 48.4375 49.957031"/></g><g clip-path="url(#683c555a9c)"><g clip-path="url(#2b2c50d8b0)"><path fill="#f6ce6a" fill-opacity="1" fill-rule="nonzero" d="M 94.132812 68.511719 L 96.441406 67.5 L 102.265625 80.800781 L 99.960938 81.8125 L 94.132812 68.511719"/></g></g><g clip-path="url(#6a8ebffea3)"><g clip-path="url(#c8fd0f8bf8)"><path fill="#f6ce6a" fill-opacity="1" fill-rule="nonzero" d="M 109.992188 67.523438 L 112.289062 68.558594 L 106.328125 81.800781 L 104.03125 80.765625 L 109.992188 67.523438"/></g></g><g clip-path="url(#c2d7e7a4f7)"><g clip-path="url(#24ac3cd425)"><path fill="#f4bd31" fill-opacity="1" fill-rule="nonzero" d="M 103.105469 71.535156 L 103.738281 72.136719 L 96.257812 79.988281 L 95.628906 79.386719 L 103.105469 71.535156"/></g></g><g clip-path="url(#576d91689b)"><path fill="#f4bd31" fill-opacity="1" fill-rule="nonzero" d="M 96.589844 77.722656 L 96.589844 77.238281 L 109.371094 77.238281 L 109.371094 77.722656 L 96.589844 77.722656"/></g><g clip-path="url(#a54662d21e)"><g clip-path="url(#fbb2f246ba)"><path fill="#f4bd31" fill-opacity="1" fill-rule="nonzero" d="M 102.769531 71.988281 L 103.464844 71.460938 L 110.007812 80.101562 L 109.316406 80.628906 L 102.769531 71.988281"/></g></g></svg>